<?xml version="1.0" standalone="no"?>
<!DOCTYPE svg PUBLIC "-//W3C//DTD SVG 20010904//EN"
 "http://www.w3.org/TR/2001/REC-SVG-20010904/DTD/svg10.dtd">
<svg version="1.0" xmlns="http://www.w3.org/2000/svg"
 width="500.000000pt" height="500.000000pt" viewBox="0 0 500.000000 500.000000"
 preserveAspectRatio="xMidYMid meet">
<metadata>
Created by potrace 1.16, written by Peter Selinger 2001-2019
</metadata>
<g transform="translate(0.000000,500.000000) scale(0.100000,-0.100000)"
fill="#000000" stroke="none">
<path d="M2253 4484 c-573 -69 -1103 -400 -1426 -889 -32 -49 -88 -148 -123
-220 -341 -695 -246 -1528 243 -2135 125 -155 325 -330 501 -439 919 -571
2127 -303 2725 604 32 50 88 149 123 220 341 694 246 1529 -243 2135 -77 96
-245 258 -345 333 -420 315 -936 454 -1455 391z m557 -29 c310 -52 586 -165
843 -345 115 -80 370 -334 451 -448 182 -257 298 -539 352 -857 22 -125 25
-450 6 -579 -83 -566 -409 -1077 -887 -1388 -575 -374 -1323 -420 -1940 -118
-220 108 -378 224 -555 406 -185 191 -312 383 -411 624 -259 628 -173 1347
228 1913 80 113 336 368 450 447 266 187 581 312 878 349 50 6 104 13 120 15
63 9 374 -4 465 -19z"/>
<path d="M2285 4291 c-97 -16 -152 -88 -142 -187 11 -108 68 -160 172 -158 68
1 128 25 152 60 8 13 17 42 20 65 5 37 4 42 -11 36 -10 -4 -29 -7 -42 -7 -18
0 -24 -5 -24 -20 0 -37 -44 -70 -94 -70 -67 0 -96 38 -96 126 0 60 32 94 89
94 53 0 71 -8 82 -36 7 -20 16 -24 49 -24 38 0 41 2 35 23 -24 79 -91 114
-190 98z"/>
<path d="M2557 4259 c-14 -98 -29 -280 -24 -285 2 -3 47 -9 98 -14 52 -6 109
-12 127 -14 30 -4 32 -3 32 25 0 35 -2 36 -102 44 -76 7 -78 7 -78 33 0 50 10
54 99 47 l81 -8 0 27 c0 28 -6 31 -104 41 -33 3 -61 7 -62 8 -1 1 1 17 3 35
l6 34 93 -7 94 -7 0 29 0 30 -77 7 c-43 4 -101 9 -129 13 l-51 5 -6 -43z"/>
<path d="M2867 4094 c-27 -86 -46 -158 -43 -161 2 -3 19 -6 37 -6 30 -2 33 1
51 55 l19 56 45 -15 c54 -18 67 -38 54 -84 -16 -54 -12 -65 23 -76 l34 -10 11
44 c16 59 15 83 -5 105 -15 17 -15 18 1 18 29 0 76 55 76 88 0 53 -32 79 -138
112 -53 16 -101 30 -107 30 -5 0 -32 -70 -58 -156z"/>
<path d="M1877 4195 c-60 -23 -93 -52 -112 -97 -30 -75 4 -178 75 -226 30 -20
43 -23 93 -19 105 9 177 71 177 152 0 41 -14 50 -53 36 -20 -8 -26 -18 -29
-47 -4 -45 -39 -75 -91 -77 -59 -2 -107 61 -107 138 0 70 104 113 156 64 18
-17 28 -19 50 -12 38 13 40 26 6 63 -23 27 -37 33 -78 36 -27 2 -66 -3 -87
-11z"/>
<path d="M3250 4111 c-14 -26 -16 -23 35 -51 25 -14 45 -27 45 -30 0 -3 -29
-57 -64 -120 l-64 -115 30 -19 c17 -11 33 -15 38 -10 4 5 34 56 66 114 31 58
59 107 62 110 2 3 25 -7 51 -22 46 -25 48 -25 59 -7 7 10 12 23 12 28 0 10
-230 141 -248 141 -6 0 -16 -9 -22 -19z"/>
<path d="M1517 4010 c-59 -38 -107 -72 -107 -76 0 -9 171 -274 176 -274 14 0
214 136 214 144 0 6 -6 19 -14 28 -11 16 -19 13 -90 -33 -43 -27 -79 -49 -80
-47 -2 2 -12 17 -24 34 l-21 31 69 44 c72 45 81 58 55 79 -12 10 -26 5 -81
-29 -36 -22 -68 -41 -72 -41 -4 0 -15 13 -24 30 l-17 29 75 47 c76 47 83 57
61 86 -12 15 -23 11 -120 -52z"/>
<path d="M3539 3871 c-44 -44 -39 -77 21 -152 53 -66 57 -78 38 -97 -35 -35
-112 20 -107 76 3 22 -4 38 -21 57 l-24 26 -13 -23 c-7 -13 -12 -40 -13 -61 0
-63 99 -157 167 -157 56 0 110 65 97 116 -4 14 -26 48 -50 77 -47 54 -53 77
-29 97 32 26 104 -36 92 -79 -3 -13 5 -29 23 -46 28 -27 28 -27 39 -7 24 44
11 93 -38 145 -59 65 -133 76 -182 28z"/>
<path d="M1264 3805 c-16 -9 -59 -45 -94 -80 l-63 -64 113 -121 113 -121 69
68 c38 37 76 80 84 95 63 121 -100 285 -222 223z m122 -99 c58 -57 58 -87 5
-147 l-40 -44 -76 75 -76 75 45 43 c59 56 85 55 142 -2z"/>
<path d="M2285 3765 c-461 -74 -865 -427 -1009 -882 -75 -239 -75 -523 -1
-768 134 -443 538 -801 994 -880 97 -17 355 -20 448 -5 454 74 856 418 1003
858 51 155 63 245 57 452 -4 158 -8 198 -30 275 -71 250 -167 417 -341 591
-196 196 -437 320 -696 360 -114 17 -315 16 -425 -1z m405 -20 c214 -36 392
-109 555 -228 240 -176 404 -419 482 -715 21 -80 26 -127 30 -267 4 -147 2
-184 -17 -275 -49 -238 -140 -425 -290 -595 -243 -275 -574 -425 -942 -426
-479 -1 -898 250 -1122 671 -228 431 -184 964 111 1352 180 236 469 416 758
472 44 8 89 17 100 19 48 11 257 5 335 -8z"/>
<path d="M1653 1144 c-39 -51 -39 -55 -13 -71 16 -10 21 -10 28 2 7 13 13 11
42 -10 45 -33 84 -30 88 6 2 21 -6 35 -40 64 -68 58 -69 58 -105 9z"/>
<path d="M1903 1005 c-45 -32 -18 -106 43 -121 88 -22 134 56 63 108 -36 26
-80 32 -106 13z"/>
<path d="M2705 893 c-16 -3 -33 -8 -38 -12 -6 -6 8 -109 16 -117 10 -10 47 11
47 27 0 23 48 27 56 4 7 -17 40 -20 49 -5 4 6 2 17 -4 23 -5 7 -8 23 -4 35 11
45 -24 59 -122 45z"/>
</g>
</svg>
